<?xml version="1.0" standalone="no"?>
<!DOCTYPE svg PUBLIC "-//W3C//DTD SVG 20010904//EN"
 "http://www.w3.org/TR/2001/REC-SVG-20010904/DTD/svg10.dtd">
<svg version="1.0" xmlns="http://www.w3.org/2000/svg"
 width="1131.308676pt" height="1118.364435pt" viewBox="0 0 1131.308676 1118.364435"
 preserveAspectRatio="xMidYMid meet">
<metadata>
Created by potrace 1.16, written by Peter Selinger 2001-2019
</metadata>
<g transform="translate(-67.519295,1164.364435) scale(0.100000,-0.100000)"
fill="#000000" stroke="none">
<path d="M7600 11640 c-589 -21 -1311 -138 -1935 -315 -1109 -313 -2170 -872
-3060 -1611 -454 -376 -873 -818 -1177 -1239 -317 -440 -559 -872 -666 -1190
-67 -199 -87 -308 -87 -475 0 -152 13 -216 68 -325 61 -122 202 -277 354 -389
l80 -59 7 -111 c16 -274 40 -421 98 -596 66 -201 184 -394 331 -540 l86 -85
-19 -67 c-81 -292 -32 -707 120 -1009 148 -294 393 -574 624 -713 33 -20 63
-33 66 -29 4 5 12 64 19 133 17 172 68 470 84 486 2 2 37 -8 77 -23 l73 -27
-7 -88 c-7 -91 -47 -332 -70 -428 -54 -217 -64 -433 -27 -575 25 -93 81 -215
138 -298 104 -150 297 -340 454 -444 55 -37 76 -58 109 -114 103 -173 299
-368 501 -499 l64 -41 6 26 c4 14 13 74 19 135 l12 109 62 -86 c127 -179 307
-360 511 -512 109 -82 259 -181 273 -181 5 0 27 44 47 98 42 109 229 495 248
509 7 6 66 20 132 33 398 75 928 268 1300 472 447 245 856 562 1158 898 67 74
135 151 151 170 15 19 26 28 23 19 -97 -299 -132 -429 -125 -465 2 -10 42 43
105 137 127 193 211 306 335 451 92 107 255 275 247 253 -2 -5 -20 -41 -40
-80 -85 -165 -229 -569 -217 -607 2 -6 44 36 93 93 192 223 410 432 660 631
630 500 1273 786 2020 898 506 75 734 133 935 236 47 24 95 51 107 61 l21 18
-32 105 c-64 205 -235 632 -425 1060 -476 1070 -1007 2089 -1436 2755 -195
303 -452 609 -687 816 l-78 69 38 16 c268 113 616 244 795 300 31 10 57 20 57
23 -1 13 -379 277 -536 374 -454 283 -988 539 -1429 685 -324 108 -728 196
-957 209 l-107 6 102 121 c196 233 504 531 765 741 40 32 69 61 65 65 -13 13
-296 18 -523 10z m543 -1580 c80 0 89 -15 15 -25 -29 -4 -64 -12 -78 -18 -14
-5 -43 -13 -65 -17 -22 -4 -80 -17 -130 -28 -49 -12 -159 -37 -244 -56 -460
-106 -853 -301 -1351 -670 -74 -56 -177 -136 -229 -180 -51 -43 -89 -70 -83
-60 7 14 6 26 -3 44 -13 24 -11 28 33 75 26 28 -21 -15 -103 -95 -116 -113
-127 -122 -50 -41 561 585 1150 922 1827 1046 99 18 305 35 358 29 19 -2 65
-4 103 -4z m-140 -97 c-18 -2 -48 -2 -65 0 -18 2 -4 4 32 4 36 0 50 -2 33 -4z
m-1773 -337 c0 -2 -24 -22 -52 -43 -136 -103 -401 -379 -590 -615 -146 -181
-519 -677 -623 -828 -185 -269 -181 -258 -56 -128 358 374 794 650 1386 878
453 174 939 299 1545 399 178 30 582 82 588 76 2 -1 -41 -26 -94 -54 -103 -55
-388 -225 -909 -543 -424 -258 -597 -357 -1049 -597 -569 -303 -785 -436
-1151 -711 -425 -318 -606 -493 -994 -960 -362 -434 -530 -593 -746 -703 -67
-34 -92 -41 -155 -45 -66 -3 -79 -1 -110 20 -20 13 -46 45 -60 73 -22 45 -25
62 -24 160 0 89 6 133 32 230 58 224 142 448 276 729 301 634 792 1244 1426
1771 412 343 734 560 1215 819 147 79 145 78 145 72z m-684 -1021 c-63 -73
-69 -70 -10 5 26 33 49 58 52 55 3 -2 -16 -29 -42 -60z m1585 -732 c10 -31 17
-58 15 -60 -3 -4 -13 23 -51 132 -6 18 -5 18 5 2 6 -9 20 -43 31 -74z m-5604
54 c-3 -7 -13 -51 -22 -98 -9 -46 -34 -151 -56 -234 -77 -298 -116 -594 -106
-805 12 -260 90 -433 318 -705 115 -138 158 -193 137 -177 -10 8 -22 11 -28 7
-7 -5 2 -21 27 -46 39 -40 59 -50 49 -24 -10 26 3 16 34 -26 16 -23 27 -45 24
-50 -3 -5 2 -19 10 -31 10 -14 16 -17 16 -8 0 19 21 -1 24 -24 1 -9 24 -42 50
-73 l48 -58 -58 60 c-31 33 -137 143 -233 244 -213 224 -417 414 -611 571 -80
64 -151 125 -159 134 -22 27 -26 166 -7 266 33 179 134 438 253 655 71 129
272 435 287 435 4 0 6 -6 3 -13z m5663 -238 c12 -44 19 -83 17 -85 -2 -3 -12
24 -21 58 -8 35 -19 73 -22 86 -4 12 -4 22 -1 22 3 0 15 -36 27 -81z m59 -209
c52 -237 55 -274 56 -555 0 -244 -2 -281 -23 -385 -59 -293 -128 -477 -261
-693 -22 -37 -39 -67 -37 -67 2 0 37 22 78 49 183 121 397 206 609 242 106 18
152 20 309 16 162 -4 219 -10 455 -51 317 -55 500 -76 681 -76 234 0 464 34
659 98 50 17 91 29 91 29 1 -1 -57 -49 -128 -107 -72 -58 -173 -140 -227 -183
-126 -103 -335 -242 -458 -305 -129 -66 -304 -134 -428 -167 -112 -30 -154
-49 -90 -40 77 10 271 25 336 25 36 0 133 -12 215 -26 127 -23 180 -27 356
-28 115 0 208 -4 208 -7 0 -13 -281 -279 -370 -351 -486 -389 -985 -609 -1420
-627 l-145 -6 80 -13 c153 -23 340 -42 430 -42 l90 -1 -115 -112 c-278 -271
-578 -476 -876 -597 -135 -55 -364 -122 -368 -107 -2 7 -13 57 -25 113 -12 56
-28 121 -35 145 -14 43 -14 41 -15 -76 -3 -416 -123 -750 -377 -1055 -83 -100
-223 -243 -313 -320 l-63 -54 5 39 c21 142 15 376 -13 585 -18 130 -22 133
-37 30 -51 -344 -170 -592 -408 -848 -42 -45 -81 -79 -86 -76 -5 3 -8 0 -7 -8
2 -7 -3 -12 -10 -10 -8 1 -11 -1 -8 -6 3 -5 -6 -20 -19 -32 -14 -13 -25 -20
-25 -16 0 5 -7 3 -15 -4 -8 -7 -13 -15 -10 -19 2 -4 -24 -34 -58 -67 -99 -95
-129 -120 -123 -104 3 8 12 80 21 160 9 80 19 156 22 170 13 59 -15 -1 -36
-75 -25 -90 -139 -328 -261 -545 -135 -240 -255 -479 -290 -577 l-32 -92 -47
32 c-163 112 -379 304 -489 434 -216 256 -319 481 -330 722 -2 63 -8 108 -12
100 -23 -43 -54 -432 -48 -615 l3 -122 -46 39 c-241 201 -376 410 -455 704
-24 90 -27 118 -28 277 -1 97 -4 171 -8 165 -3 -7 -17 -55 -30 -107 -20 -83
-23 -119 -23 -287 0 -106 -3 -193 -7 -193 -5 0 -52 44 -105 98 -161 160 -285
341 -341 494 -40 110 -37 251 10 508 50 269 59 334 61 454 1 58 6 101 10 97
14 -13 15 -268 3 -367 l-12 -93 60 -25 c79 -34 155 -84 296 -196 63 -50 147
-111 186 -134 l71 -44 114 115 c382 386 720 569 889 483 22 -11 42 -20 45 -20
20 0 -100 150 -162 201 -93 77 -265 150 -433 184 -36 7 -55 14 -43 14 12 1 54
-6 94 -14 40 -9 74 -13 77 -10 3 3 1 5 -4 5 -5 0 -18 13 -27 30 -10 17 -24 30
-30 30 -7 0 -6 -4 3 -10 8 -5 10 -10 4 -10 -22 0 -53 45 -50 73 2 15 0 27 -4
27 -4 0 -7 15 -7 34 0 19 5 34 10 33 6 -1 9 21 8 53 -3 89 40 209 127 355 57
95 250 357 277 377 17 13 167 8 238 -7 38 -8 94 -26 124 -40 112 -51 69 -14
-58 50 -141 71 -211 88 -342 83 -98 -5 -129 -11 -253 -51 -205 -67 -290 -81
-479 -81 -294 -1 -471 57 -820 268 -281 170 -372 206 -516 206 -114 0 -213
-39 -301 -118 l-36 -33 47 114 c74 176 214 435 296 549 67 92 190 138 365 138
192 0 275 -36 512 -224 185 -146 253 -191 373 -251 265 -129 582 -175 1225
-175 456 0 710 33 1063 136 350 102 705 293 896 481 47 45 82 86 78 89 -4 4
-15 0 -24 -9 -22 -19 -234 -147 -245 -147 -4 0 14 27 40 60 89 110 202 355
256 554 80 292 87 635 19 923 l-27 113 22 23 c24 25 30 46 9 28 -8 -6 -18 -7
-22 -3 -5 4 -5 -1 -2 -10 4 -10 3 -18 -1 -18 -4 0 -22 44 -40 98 -19 53 -51
135 -73 182 -23 50 -31 75 -19 60 11 -14 22 -33 26 -43 3 -9 9 -15 14 -12 4 3
7 -1 6 -8 0 -6 14 -56 33 -109 l34 -97 29 32 c15 18 28 28 28 24 0 -5 13 1 30
13 19 14 27 26 23 37 -5 13 -1 15 24 10 37 -7 71 21 51 41 -7 7 -19 12 -27 12
-11 0 -12 3 -4 11 7 7 32 13 57 14 44 1 91 28 81 45 -3 4 2 13 10 20 8 7 15 9
15 6 0 -4 15 3 33 15 17 12 -32 -40 -111 -115 -78 -76 -147 -147 -152 -157 -6
-10 43 35 107 100 123 123 251 227 264 214 4 -5 16 -51 28 -103z m-519 -30
c-10 -6 -11 -10 -2 -10 6 0 12 -8 12 -17 0 -16 -1 -16 -16 -1 -17 17 -12 38 9
38 7 0 6 -4 -3 -10z m-428 -297 c41 -58 50 -73 45 -73 -2 0 -23 27 -46 60 -23
33 -40 60 -38 60 3 0 20 -21 39 -47z m-382 -2 c19 -10 48 -37 65 -60 38 -54
41 -126 7 -186 -25 -44 -118 -112 -192 -142 -60 -24 -172 -23 -220 1 -110 57
-143 158 -80 245 49 67 163 133 270 157 62 13 100 9 150 -15z m505 -201 c88
-176 129 -360 128 -585 -1 -494 -198 -837 -600 -1043 -175 -90 -344 -142 -583
-179 -162 -25 -534 -25 -675 1 -170 31 -320 92 -375 151 -21 24 -19 23 21 -7
44 -33 147 -83 155 -75 2 2 -18 14 -45 27 -28 13 -54 33 -60 47 -8 18 -8 23 1
17 8 -5 9 -2 3 12 -15 33 -14 126 0 155 8 14 11 30 7 33 -3 4 1 4 11 0 10 -3
17 -1 17 5 0 6 -5 11 -11 11 -8 0 -8 4 0 13 6 8 13 30 15 50 3 20 12 50 21 66
8 17 13 31 9 31 -4 0 -2 6 3 13 6 6 14 29 17 50 9 47 26 87 38 87 5 0 4 9 -2
19 -27 52 -5 27 36 -39 104 -170 267 -291 481 -357 82 -25 101 -27 268 -27
168 0 186 2 270 27 292 90 472 256 555 513 88 273 48 574 -105 804 -57 84 -63
96 -43 84 7 -4 8 -3 4 4 -4 7 0 22 9 34 10 13 15 17 13 9 -11 -38 70 -68 101
-38 11 10 13 10 7 0 -10 -18 4 -16 27 5 19 16 20 16 14 -1 -6 -15 -4 -16 16
-4 12 7 39 12 60 12 26 0 39 4 42 16 3 10 12 20 20 23 8 3 15 13 15 22 0 8 6
14 13 11 6 -2 24 5 40 15 15 11 27 16 27 12 0 -4 3 -5 6 -2 3 4 1 16 -6 27 -6
12 -8 21 -5 21 2 0 21 -32 40 -70z m4776 -1228 c99 -211 179 -385 179 -386 0
-2 -46 -6 -102 -10 -178 -12 -232 -25 -419 -101 -210 -86 -396 -187 -737 -403
-325 -205 -391 -245 -882 -522 -208 -117 -376 -219 -460 -278 -102 -70 -59
-34 295 250 336 270 474 393 614 543 163 176 233 274 287 403 21 50 57 100
144 202 132 155 173 208 290 375 95 137 225 298 297 368 28 26 88 68 134 92
l84 44 49 -97 c27 -53 129 -270 227 -480z m-6765 383 c-2 -5 -7 16 -11 47 l-7
58 -28 -39 c-16 -21 -34 -42 -40 -46 -6 -4 8 20 32 52 l43 59 7 -60 c4 -34 6
-65 4 -71z m-2645 -390 c20 -13 50 -45 67 -71 57 -85 37 -154 -46 -154 -79 0
-143 68 -150 159 -4 54 -2 59 23 80 32 24 50 22 106 -14z m-353 -67 c20 -23
86 -149 112 -218 7 -19 34 -70 59 -114 47 -81 159 -198 216 -226 17 -8 31 -15
33 -16 2 -1 -17 -44 -42 -96 -25 -52 -46 -99 -46 -106 0 -57 -188 124 -265
256 -70 119 -135 353 -135 488 0 57 30 71 68 32z m924 -823 c84 -22 145 -51
316 -149 293 -169 479 -238 717 -269 26 -3 25 -4 -8 -6 -23 0 -36 -5 -32 -11
3 -5 1 -10 -5 -10 -6 0 -9 -4 -5 -9 8 -14 -35 -41 -67 -41 -16 0 -33 -9 -42
-22 -9 -12 -16 -17 -16 -10 0 19 -21 14 -27 -7 -2 -10 -15 -24 -27 -31 -28
-15 -29 -40 -2 -41 12 -1 -6 -7 -39 -15 -75 -17 -90 -16 -45 1 19 7 31 14 27
14 -5 1 -5 6 -1 12 4 8 9 7 15 -2 6 -10 9 -10 9 -2 0 20 -19 25 -35 9 -15 -14
-45 -12 -45 3 0 4 -7 8 -15 8 -8 0 -12 -4 -9 -9 3 -4 -2 -8 -10 -8 -14 0 -20
12 -17 33 0 4 -17 7 -40 7 -41 0 -69 -16 -62 -36 2 -7 -3 -14 -11 -17 -10 -4
-13 -1 -10 7 3 8 0 17 -7 22 -7 4 -10 3 -6 -3 4 -6 -1 -17 -10 -24 -15 -12
-16 -12 -11 8 7 26 -5 32 -50 26 -26 -4 -30 -8 -21 -19 13 -16 5 -18 -21 -4
-13 7 -21 7 -25 0 -4 -6 -3 -10 2 -9 32 6 48 -23 19 -34 -11 -4 -13 -1 -9 10
5 12 2 15 -10 10 -10 -4 -17 -1 -17 6 0 7 -7 3 -15 -7 -14 -19 -21 -12 -16 17
0 4 -4 7 -9 7 -6 0 -10 -5 -10 -10 0 -6 -11 -3 -24 5 -18 12 -26 13 -32 4 -5
-8 -3 -9 6 -4 9 5 11 4 6 -3 -4 -7 -16 -12 -28 -12 -17 0 -18 2 -8 16 11 12
10 18 -5 32 -10 9 -15 11 -11 5 4 -7 2 -13 -3 -13 -6 0 -11 -4 -11 -10 0 -5 8
-6 17 -3 15 6 16 5 3 -9 -9 -9 -18 -12 -21 -6 -6 10 -54 7 -65 -5 -4 -4 1 -16
11 -27 26 -29 9 -25 -22 6 -14 14 -28 23 -31 19 -3 -3 0 -11 6 -17 7 -7 12
-16 12 -22 0 -5 -10 3 -23 17 -24 28 -37 34 -37 16 0 -5 5 -7 10 -4 6 3 10 1
10 -6 0 -6 -8 -9 -20 -6 -10 3 -24 -1 -31 -9 -6 -8 -24 -14 -39 -14 -30 0 -42
-8 -34 -22 3 -5 12 -4 20 3 12 10 17 9 27 -1 9 -10 9 -11 -2 -5 -7 4 -16 2
-20 -4 -6 -9 -15 -9 -35 -1 -24 9 -27 8 -22 -5 3 -8 9 -23 12 -32 5 -15 4 -16
-5 -3 -11 16 -14 3 -14 -61 0 -14 -5 -26 -12 -26 -7 0 -12 7 -11 15 1 9 -8 16
-21 17 -12 1 -20 -2 -17 -6 2 -4 -4 -8 -13 -8 -38 0 -57 -7 -81 -30 -14 -14
-27 -20 -31 -14 -3 5 -22 9 -41 9 -20 -1 -40 5 -47 14 -11 13 -12 13 -13 0 -1
-10 -4 -9 -10 5 -8 18 -9 18 -9 2 -1 -10 6 -32 15 -50 15 -30 15 -31 0 -16
-19 17 -76 152 -76 178 0 9 -8 30 -17 46 -27 48 -24 276 5 378 43 152 100 226
206 266 64 25 194 27 278 6z m1888 -329 c0 -3 -70 -52 -100 -70 -26 -15 2 9
49 43 43 30 51 35 51 27z m-1495 -887 c22 -10 29 -16 15 -13 -28 7 -80 33 -65
33 6 0 28 -9 50 -20z m1063 -36 c-16 -2 -40 -2 -55 0 -16 2 -3 4 27 4 30 0 43
-2 28 -4z m-565 -40 c-13 -2 -35 -2 -50 0 -16 2 -5 4 22 4 28 0 40 -2 28 -4z"/>
<path d="M4165 3490 c78 -37 95 -37 25 0 -30 16 -62 29 -70 29 -8 0 12 -13 45
-29z"/>
<path d="M5335 1670 c-4 -17 -5 -33 -3 -36 3 -2 20 13 39 33 19 21 27 32 18
25 -9 -6 -20 -8 -24 -4 -5 4 -5 0 -1 -8 4 -8 1 -7 -7 3 -14 17 -16 16 -22 -13z"/>
</g>
</svg>
